<svg xmlns="http://www.w3.org/2000/svg" width="21.542" height="21.537" viewBox="0 0 21.542 21.537">
  <path id="Icon_awesome-instagram" data-name="Icon awesome-instagram" d="M10.768,7.484a5.522,5.522,0,1,0,5.522,5.522A5.513,5.513,0,0,0,10.768,7.484Zm0,9.112a3.59,3.59,0,1,1,3.59-3.59,3.6,3.6,0,0,1-3.59,3.59ZM17.8,7.259a1.288,1.288,0,1,1-1.288-1.288A1.285,1.285,0,0,1,17.8,7.259Zm3.657,1.307a6.374,6.374,0,0,0-1.74-4.513,6.416,6.416,0,0,0-4.513-1.74c-1.778-.1-7.108-.1-8.886,0A6.406,6.406,0,0,0,1.81,4.048,6.4,6.4,0,0,0,.07,8.561c-.1,1.778-.1,7.108,0,8.886A6.374,6.374,0,0,0,1.81,21.96,6.424,6.424,0,0,0,6.323,23.7c1.778.1,7.108.1,8.886,0a6.374,6.374,0,0,0,4.513-1.74,6.416,6.416,0,0,0,1.74-4.513c.1-1.778.1-7.1,0-8.881Zm-2.3,10.789A3.635,3.635,0,0,1,17.117,21.4c-1.418.562-4.782.433-6.348.433S5.833,21.96,4.42,21.4a3.635,3.635,0,0,1-2.047-2.047c-.562-1.418-.433-4.782-.433-6.348s-.125-4.936.433-6.349A3.635,3.635,0,0,1,4.42,4.611c1.418-.562,4.782-.433,6.348-.433s4.936-.125,6.348.433a3.635,3.635,0,0,1,2.047,2.047c.562,1.418.433,4.782.433,6.349S19.726,17.942,19.164,19.355Z" transform="translate(0.005 -2.238)" fill="#018aff"/>
</svg>
