<svg xmlns="http://www.w3.org/2000/svg" width="16.926" height="22" viewBox="0 0 16.926 22">
  <path id="Icon_awesome-pinterest-p" data-name="Icon awesome-pinterest-p" d="M8.992.457C4.47.457,0,3.472,0,8.352c0,3.1,1.746,4.866,2.8,4.866.436,0,.688-1.217.688-1.56,0-.41-1.045-1.283-1.045-2.989A5.957,5.957,0,0,1,8.635,2.612c3,0,5.223,1.706,5.223,4.84,0,2.341-.939,6.731-3.98,6.731a1.957,1.957,0,0,1-2.036-1.931c0-1.666,1.164-3.279,1.164-5,0-2.918-4.139-2.389-4.139,1.137a5.178,5.178,0,0,0,.423,2.235c-.608,2.618-1.851,6.519-1.851,9.217,0,.833.119,1.653.2,2.486.15.167.075.15.3.066,2.222-3.041,2.142-3.636,3.147-7.617a3.575,3.575,0,0,0,3.055,1.587c4.681,0,6.784-4.562,6.784-8.675C16.926,3.313,13.144.457,8.992.457Z" transform="translate(0 -0.457)" fill="#018aff"/>
</svg>
