<svg xmlns="http://www.w3.org/2000/svg" width="24.557" height="17.85" viewBox="0 0 24.557 17.85">
  <g id="Icon_feather-youtube" data-name="Icon feather-youtube" transform="translate(1 1)">
    <path id="Path_1" data-name="Path 1" d="M23.583,8.481a2.85,2.85,0,0,0-1.989-2.05C19.831,6,12.777,6,12.777,6S5.724,6,3.96,6.472a2.85,2.85,0,0,0-1.989,2.05A29.732,29.732,0,0,0,1.5,13.946a29.732,29.732,0,0,0,.472,5.465A2.85,2.85,0,0,0,3.96,21.379c1.763.472,8.817.472,8.817.472s7.054,0,8.817-.472a2.85,2.85,0,0,0,1.989-2.05,29.732,29.732,0,0,0,.472-5.383,29.731,29.731,0,0,0-.472-5.465Z" transform="translate(-1.499 -6)" fill="none" stroke="#018aff" stroke-linecap="round" stroke-linejoin="round" stroke-width="2"/>
    <path id="Path_2" data-name="Path 2" d="M14.625,19.425l5.9-3.353-5.9-3.353Z" transform="translate(-5.654 -8.127)" fill="none" stroke="#018aff" stroke-linecap="round" stroke-linejoin="round" stroke-width="2"/>
  </g>
</svg>
